<?xml version="1.0" encoding="UTF-8" standalone="no"?>
<!-- Created with Inkscape (http://www.inkscape.org/) -->

<svg
   width="48"
   height="48"
   viewBox="0 0 12.7 12.7"
   version="1.1"
   id="svg1"
   sodipodi:docname="icon.svg"
   inkscape:version="1.4.1 (93de688d07, 2025-03-30)"
   xmlns:inkscape="http://www.inkscape.org/namespaces/inkscape"
   xmlns:sodipodi="http://sodipodi.sourceforge.net/DTD/sodipodi-0.dtd"
   xmlns="http://www.w3.org/2000/svg"
   xmlns:svg="http://www.w3.org/2000/svg">
  <sodipodi:namedview
     id="namedview1"
     pagecolor="#ffffff"
     bordercolor="#000000"
     borderopacity="0.25"
     inkscape:showpageshadow="2"
     inkscape:pageopacity="0.0"
     inkscape:pagecheckerboard="0"
     inkscape:deskcolor="#d1d1d1"
     inkscape:document-units="mm"
     inkscape:zoom="8.3755251"
     inkscape:cx="47.937293"
     inkscape:cy="28.714618"
     inkscape:window-width="1910"
     inkscape:window-height="1042"
     inkscape:window-x="0"
     inkscape:window-y="0"
     inkscape:window-maximized="1"
     inkscape:current-layer="layer1" />
  <defs
     id="defs1" />
  <g
     inkscape:label="Layer 1"
     inkscape:groupmode="layer"
     id="layer1">
    <circle
       style="fill:#5f5fd3;fill-opacity:1;stroke-width:0.609986;stroke-dasharray:none"
       id="path3"
       cx="6.3469324"
       cy="6.3482633"
       inkscape:label="Circle"
       r="6.2824817" />
    <path
       d="M 5.3373131,5.7051473 C 5.6638587,5.7160904 5.8375268,6.0411323 6.0659011,6.23367 6.2848544,6.4677245 6.5396809,6.6734607 6.7322093,6.9301623 6.8812358,7.1906507 6.7133674,7.4699994 6.5056918,7.6361032 6.2036959,7.9286779 5.9186853,8.2420157 5.6053475,8.5232487 5.3769457,8.6572934 5.1070363,8.5873115 4.8541123,8.6043153 c 0,-0.9664107 0,-1.9328307 0,-2.8992599 z m 0,0"
       id="path1"
       style="fill:#ffffff;stroke-width:0.483968;stroke-dasharray:none" />
    <path
       d="M 4.8635332,4.2555265 V 2.8058964 c 0,-0.2661317 -0.2151756,-0.4832008 -0.4832007,-0.4832008 -0.2661502,0 -0.4832008,0.2170691 -0.4832008,0.4832008 v 1.4496301 c 0,0.266141 0.2170506,0.4832192 0.4832008,0.4832192 0.2680251,0 0.4832007,-0.2170782 0.4832007,-0.4832192 z M 3.8876923,5.7070499 C 3.8895293,5.280467 3.8593831,5.0558427 3.9990895,4.918048 c 0.00551,-0.00551 0.010943,-0.010943 0.016452,-0.016452 0.00367,-0.00551 0.0092,-0.012776 0.012776,-0.018841 0.1019034,-0.1227304 0.313338,-0.1605339 0.6323376,-0.1433648 h 0.010943 0.012776 c 1.2136914,0.00367 2.4254986,-0.00735 3.6354032,0.00551 l -0.030147,-0.00184 c 0.2586042,0.018841 0.4643404,0.2963524 0.4322538,0.5606 -0.00184,0.00735 -0.00184,0.014614 -0.00367,0.022611 v 0.032169 c -0.00735,0.6493229 0.012776,1.2854289 -0.010943,1.915873 l 0.00367,-0.039614 C 8.6807925,7.4819653 8.4108283,7.6726096 8.15034,7.6424073 8.14299,7.6405673 8.135726,7.6405673 8.127729,7.6387373 H 7.7521131 c -0.2661409,0 -0.4832192,0.2170783 -0.4832192,0.4832007 0,0.2661502 0.2170783,0.4832283 0.4832192,0.4832283 h 0.3416468 l -0.056618,-0.00367 c 0.7606745,0.090626 1.5345752,-0.456776 1.632719,-1.2476528 0.00184,-0.00735 0.00184,-0.014614 0.00184,-0.022611 0.00184,-0.00551 0.00184,-0.010943 0.00184,-0.016452 0.024449,-0.6549847 0.00367,-1.3080852 0.010943,-1.9441728 l -0.00367,0.052758 C 9.7788688,4.6343701 9.1805939,3.8397065 8.3595057,3.779311 c -0.00551,0 -0.010943,0 -0.016452,0 -0.00367,0 -0.00735,0 -0.012776,0 C 7.1146933,3.7683679 5.8991269,3.7774739 4.687338,3.7737998 H 4.711787 C 4.2984204,3.7530238 3.6849615,3.7829851 3.2848034,4.2683207 l 0.032169,-0.034008 C 2.8507478,4.6967689 2.9224852,5.355522 2.9205919,5.7047057 c 0,0.1736865 0.090534,0.3340915 0.2397161,0.4209302 0.1490264,0.086766 0.3341101,0.086766 0.4851034,0.00184 C 3.7944381,6.0407095 3.8870121,5.8802033 3.8870121,5.708447 Z M 6.7869431,4.2555265 V 2.8058964 c 0,-0.2661317 -0.217069,-0.4832008 -0.4832009,-0.4832008 -0.2661501,0 -0.4832191,0.2170691 -0.4832191,0.4832008 v 1.4496301 c 0,0.266141 0.217069,0.4832192 0.4832191,0.4832192 0.2661319,0 0.4832009,-0.2170782 0.4832009,-0.4832192 z m 1.9328306,0 V 2.8058964 c 0,-0.2661317 -0.2170504,-0.4832008 -0.4832005,-0.4832008 -0.2661502,0 -0.4832009,0.2170691 -0.4832009,0.4832008 v 1.4496301 c 0,0.266141 0.2170507,0.4832192 0.4832009,0.4832192 0.2661501,0 0.4832005,-0.2170782 0.4832005,-0.4832192 z m -3.3824606,2.41605 H 4.8541123 c -1.0702257,0 -1.9328493,0.862596 -1.9328493,1.9328306 v 0.9664201 c 0,0.2661496 0.2170783,0.4832108 0.4832193,0.4832108 0.2661317,0 0.48321,-0.2170612 0.48321,-0.4832108 V 8.6044071 c 0,-0.5303977 0.4360222,-0.9664106 0.96642,-0.9664106 h 0.4832008 c 0.2661501,0 0.48321,-0.2170691 0.48321,-0.4832192 0,-0.2661317 -0.2170599,-0.4832008 -0.48321,-0.4832008 z m 0,0"
       id="path2"
       style="display:inline;fill:#ffffff;stroke-width:0.483208" />
  </g>
</svg>
